<svg xmlns="http://www.w3.org/2000/svg" style="display: none;">
  <symbol id="arrow-down" viewBox="0 0 24 24">
    <path d="M12 16L6 10h12z"/>
  </symbol>
  <symbol id="check" viewBox="0 0 24 24">
    <path d="M20 6L9 17l-5-5"/>
  </symbol>
  <symbol fill="currentColor" viewBox="0 0 24 24" id="pawn" stroke="currentColor">
    <g id="SVGRepo_bgCarrier" stroke-width="0"></g>
    <g id="SVGRepo_tracerCarrier" stroke-linecap="round" stroke-linejoin="round"></g>
    <g id="SVGRepo_iconCarrier">
      <path
        d="M19.189,18.757a1,1,0,0,0-.97-.757h-.933c-1.644-1.726-2.235-4.918-2.449-7H9.163c-.214,2.082-.8,5.274-2.449,7H5.781a1,1,0,0,0-.97.757L4,22H20Z"></path>
      <path
        d="M8,9h8a1,1,0,0,0,0-2h-.635a3.523,3.523,0,0,0,.278-1.357,3.643,3.643,0,0,0-7.286,0A3.523,3.523,0,0,0,8.635,7H8A1,1,0,0,0,8,9Z"></path>
    </g>
  </symbol>
  <symbol viewBox="0 0 24 24" fill="none" id="email">
    <g id="SVGRepo_bgCarrier" stroke-width="0"></g>
    <g id="SVGRepo_tracerCarrier" stroke-linecap="round" stroke-linejoin="round"></g>
    <g id="SVGRepo_iconCarrier">
      <path d="M4 9.00005L10.2 13.65C11.2667 14.45 12.7333 14.45 13.8 13.65L20 9" stroke="#000000" stroke-width="2"
            stroke-linecap="round" stroke-linejoin="round"></path>
      <path
        d="M3 9.17681C3 8.45047 3.39378 7.78123 4.02871 7.42849L11.0287 3.5396C11.6328 3.20402 12.3672 3.20402 12.9713 3.5396L19.9713 7.42849C20.6062 7.78123 21 8.45047 21 9.17681V17C21 18.1046 20.1046 19 19 19H5C3.89543 19 3 18.1046 3 17V9.17681Z"
        stroke="#000000" stroke-width="2" stroke-linecap="round"></path>
    </g>
  </symbol>
  <symbol viewBox="0 0 24 24" fill="none" id="close-eye">
    <g id="SVGRepo_bgCarrier" stroke-width="0"></g>
    <g id="SVGRepo_tracerCarrier" stroke-linecap="round" stroke-linejoin="round"></g>
    <g id="SVGRepo_iconCarrier">
      <path
        d="M2.68936 6.70456C2.52619 6.32384 2.08528 6.14747 1.70456 6.31064C1.32384 6.47381 1.14747 6.91472 1.31064 7.29544L2.68936 6.70456ZM15.5872 13.3287L15.3125 12.6308L15.5872 13.3287ZM9.04145 13.7377C9.26736 13.3906 9.16904 12.926 8.82185 12.7001C8.47466 12.4742 8.01008 12.5725 7.78417 12.9197L9.04145 13.7377ZM6.37136 15.091C6.14545 15.4381 6.24377 15.9027 6.59096 16.1286C6.93815 16.3545 7.40273 16.2562 7.62864 15.909L6.37136 15.091ZM22.6894 7.29544C22.8525 6.91472 22.6762 6.47381 22.2954 6.31064C21.9147 6.14747 21.4738 6.32384 21.3106 6.70456L22.6894 7.29544ZM19 11.1288L18.4867 10.582V10.582L19 11.1288ZM19.9697 13.1592C20.2626 13.4521 20.7374 13.4521 21.0303 13.1592C21.3232 12.8663 21.3232 12.3914 21.0303 12.0985L19.9697 13.1592ZM11.25 16.5C11.25 16.9142 11.5858 17.25 12 17.25C12.4142 17.25 12.75 16.9142 12.75 16.5H11.25ZM16.3714 15.909C16.5973 16.2562 17.0619 16.3545 17.409 16.1286C17.7562 15.9027 17.8545 15.4381 17.6286 15.091L16.3714 15.909ZM5.53033 11.6592C5.82322 11.3663 5.82322 10.8914 5.53033 10.5985C5.23744 10.3056 4.76256 10.3056 4.46967 10.5985L5.53033 11.6592ZM2.96967 12.0985C2.67678 12.3914 2.67678 12.8663 2.96967 13.1592C3.26256 13.4521 3.73744 13.4521 4.03033 13.1592L2.96967 12.0985ZM12 13.25C8.77611 13.25 6.46133 11.6446 4.9246 9.98966C4.15645 9.16243 3.59325 8.33284 3.22259 7.71014C3.03769 7.3995 2.90187 7.14232 2.8134 6.96537C2.76919 6.87696 2.73689 6.80875 2.71627 6.76411C2.70597 6.7418 2.69859 6.7254 2.69411 6.71533C2.69187 6.7103 2.69036 6.70684 2.68957 6.70503C2.68917 6.70413 2.68896 6.70363 2.68892 6.70355C2.68891 6.70351 2.68893 6.70357 2.68901 6.70374C2.68904 6.70382 2.68913 6.70403 2.68915 6.70407C2.68925 6.7043 2.68936 6.70456 2 7C1.31064 7.29544 1.31077 7.29575 1.31092 7.29609C1.31098 7.29624 1.31114 7.2966 1.31127 7.2969C1.31152 7.29749 1.31183 7.2982 1.31218 7.299C1.31287 7.30062 1.31376 7.30266 1.31483 7.30512C1.31698 7.31003 1.31988 7.31662 1.32353 7.32483C1.33083 7.34125 1.34115 7.36415 1.35453 7.39311C1.38127 7.45102 1.42026 7.5332 1.47176 7.63619C1.57469 7.84206 1.72794 8.13175 1.93366 8.47736C2.34425 9.16716 2.96855 10.0876 3.8254 11.0103C5.53867 12.8554 8.22389 14.75 12 14.75V13.25ZM15.3125 12.6308C14.3421 13.0128 13.2417 13.25 12 13.25V14.75C13.4382 14.75 14.7246 14.4742 15.8619 14.0266L15.3125 12.6308ZM7.78417 12.9197L6.37136 15.091L7.62864 15.909L9.04145 13.7377L7.78417 12.9197ZM22 7C21.3106 6.70456 21.3107 6.70441 21.3108 6.70427C21.3108 6.70423 21.3108 6.7041 21.3109 6.70402C21.3109 6.70388 21.311 6.70376 21.311 6.70368C21.3111 6.70352 21.3111 6.70349 21.3111 6.7036C21.311 6.7038 21.3107 6.70452 21.3101 6.70576C21.309 6.70823 21.307 6.71275 21.3041 6.71924C21.2983 6.73223 21.2889 6.75309 21.2758 6.78125C21.2495 6.83757 21.2086 6.92295 21.1526 7.03267C21.0406 7.25227 20.869 7.56831 20.6354 7.9432C20.1669 8.69516 19.4563 9.67197 18.4867 10.582L19.5133 11.6757C20.6023 10.6535 21.3917 9.56587 21.9085 8.73646C22.1676 8.32068 22.36 7.9668 22.4889 7.71415C22.5533 7.58775 22.602 7.48643 22.6353 7.41507C22.6519 7.37939 22.6647 7.35118 22.6737 7.33104C22.6782 7.32097 22.6818 7.31292 22.6844 7.30696C22.6857 7.30398 22.6867 7.30153 22.6876 7.2996C22.688 7.29864 22.6883 7.29781 22.6886 7.29712C22.6888 7.29677 22.6889 7.29646 22.689 7.29618C22.6891 7.29604 22.6892 7.29585 22.6892 7.29578C22.6893 7.29561 22.6894 7.29544 22 7ZM18.4867 10.582C17.6277 11.3882 16.5739 12.1343 15.3125 12.6308L15.8619 14.0266C17.3355 13.4466 18.5466 12.583 19.5133 11.6757L18.4867 10.582ZM18.4697 11.6592L19.9697 13.1592L21.0303 12.0985L19.5303 10.5985L18.4697 11.6592ZM11.25 14V16.5H12.75V14H11.25ZM14.9586 13.7377L16.3714 15.909L17.6286 15.091L16.2158 12.9197L14.9586 13.7377ZM4.46967 10.5985L2.96967 12.0985L4.03033 13.1592L5.53033 11.6592L4.46967 10.5985Z"
        fill="#1C274C"></path>
    </g>
  </symbol>
  <symbol viewBox="0 0 24 24" fill="none" id="open-eye">
    <g id="SVGRepo_bgCarrier" stroke-width="0"></g>
    <g id="SVGRepo_tracerCarrier" stroke-linecap="round" stroke-linejoin="round"></g>
    <g id="SVGRepo_iconCarrier">
      <path
        d="M3.27489 15.2957C2.42496 14.1915 2 13.6394 2 12C2 10.3606 2.42496 9.80853 3.27489 8.70433C4.97196 6.49956 7.81811 4 12 4C16.1819 4 19.028 6.49956 20.7251 8.70433C21.575 9.80853 22 10.3606 22 12C22 13.6394 21.575 14.1915 20.7251 15.2957C19.028 17.5004 16.1819 20 12 20C7.81811 20 4.97196 17.5004 3.27489 15.2957Z"
        stroke="#1C274C" stroke-width="1.5"></path>
      <path
        d="M15 12C15 13.6569 13.6569 15 12 15C10.3431 15 9 13.6569 9 12C9 10.3431 10.3431 9 12 9C13.6569 9 15 10.3431 15 12Z"
        stroke="#1C274C" stroke-width="1.5"></path>
    </g>
  </symbol>
  <symbol viewBox="0 0 120 120" id="notification-success" xml:space="preserve"
          xmlns="http://www.w3.org/2000/svg" xmlns:xlink="http://www.w3.org/1999/xlink" fill="#000000"><g id="SVGRepo_bgCarrier" stroke-width="0"></g>
    <g id="SVGRepo_tracerCarrier" stroke-linecap="round" stroke-linejoin="round"></g>
    <g id="SVGRepo_iconCarrier"><style type="text/css"> .st0 {
      fill: #FFC54D;
    } </style>
      <path class="st0"
            d="M101,35.3l-0.2-1.7h-10c0.5-3.4,0.8-6.9,1-10.5c0.1-1.9-1.4-3.5-3.1-3.5H31.4c-1.8,0-3.2,1.6-3.1,3.5 c0.1,3.6,0.5,7.1,1,10.5h-10L19,35.3c-0.1,0.4-1.2,10.6,5.4,19.8c4.3,6,11,10.1,19.7,12.2c2.8,2.8,5.9,4.9,9.2,6.2 c-0.4,4.1-0.9,8.1-1.4,11.8h-3.2c-5,0-9,4-9,9v6.2h40.6v-6.2c0-5-4-9-9-9h-3.1c-0.6-3.8-1.1-7.7-1.5-11.8c3.3-1.2,6.4-3.3,9.2-6.2 c8.7-2.1,15.4-6.2,19.7-12.2C102.2,45.9,101,35.7,101,35.3z M27.3,52.6c-4.2-5.8-4.7-12.1-4.7-15.1h7.3c1.9,9.5,5.3,17.9,9.6,24.2 C34.3,59.7,30.2,56.6,27.3,52.6z M92.7,52.6c-2.9,4-7,7.1-12.2,9.1c4.4-6.4,7.7-14.7,9.6-24.2h7.3C97.4,40.5,96.8,46.8,92.7,52.6z"></path></g>
  </symbol>
  <symbol viewBox="0 0 24 24" fill="none" id="notification-info">
    <g id="SVGRepo_bgCarrier" stroke-width="0"></g>
    <g id="SVGRepo_tracerCarrier" stroke-linecap="round" stroke-linejoin="round"></g>
    <g id="SVGRepo_iconCarrier">
      <path fill-rule="evenodd" clip-rule="evenodd"
            d="M12 22C7.28595 22 4.92893 22 3.46447 20.5355C2 19.0711 2 16.714 2 12C2 7.28595 2 4.92893 3.46447 3.46447C4.92893 2 7.28595 2 12 2C16.714 2 19.0711 2 20.5355 3.46447C22 4.92893 22 7.28595 22 12C22 16.714 22 19.0711 20.5355 20.5355C19.0711 22 16.714 22 12 22ZM12 17.75C12.4142 17.75 12.75 17.4142 12.75 17V11C12.75 10.5858 12.4142 10.25 12 10.25C11.5858 10.25 11.25 10.5858 11.25 11V17C11.25 17.4142 11.5858 17.75 12 17.75ZM12 7C12.5523 7 13 7.44772 13 8C13 8.55228 12.5523 9 12 9C11.4477 9 11 8.55228 11 8C11 7.44772 11.4477 7 12 7Z"
            fill="#1C274C"></path>
    </g>
  </symbol>
  <symbol id="notification-error" xmlns="http://www.w3.org/2000/svg" xmlns:xlink="http://www.w3.org/1999/xlink"
       viewBox="0 0 50 50" xml:space="preserve" fill="#000000"><g id="SVGRepo_bgCarrier" stroke-width="0"></g>
    <g id="SVGRepo_tracerCarrier" stroke-linecap="round" stroke-linejoin="round"></g>
    <g id="SVGRepo_iconCarrier"> <circle style="fill:#D75A4A;" cx="25" cy="25" r="25"></circle>
      <polyline style="fill:none;stroke:#FFFFFF;stroke-width:2;stroke-linecap:round;stroke-miterlimit:10;"
                points="16,34 25,25 34,16 "></polyline>
      <polyline style="fill:none;stroke:#FFFFFF;stroke-width:2;stroke-linecap:round;stroke-miterlimit:10;"
                points="16,16 25,25 34,34 "></polyline>
    </g>
  </symbol>
</svg>
